<mxfile host="app.diagrams.net" modified="2020-07-14T15:32:49.559Z" agent="5.0 (Macintosh; Intel Mac OS X 10_10_5) AppleWebKit/537.36 (KHTML, like Gecko) Chrome/83.0.4103.116 Safari/537.36" etag="n3YrJxY460HNmahpkB5c" version="13.3.5" type="github">
  <diagram id="THKmHR5q39PyAsfFlBtu" name="Page-1">
    <mxGraphModel dx="946" dy="622" grid="1" gridSize="10" guides="1" tooltips="1" connect="1" arrows="1" fold="1" page="1" pageScale="1" pageWidth="827" pageHeight="1169" math="0" shadow="0">
      <root>
        <mxCell id="0" />
        <mxCell id="1" parent="0" />
        <mxCell id="I6zU9rjs1xP289XS1NUD-21" value="" style="rounded=0;whiteSpace=wrap;html=1;fontSize=15;" vertex="1" parent="1">
          <mxGeometry x="32.5" y="280" width="185" height="60" as="geometry" />
        </mxCell>
        <mxCell id="I6zU9rjs1xP289XS1NUD-3" value="&lt;h1&gt;Le variabili&lt;/h1&gt;" style="text;html=1;strokeColor=none;fillColor=none;spacing=5;spacingTop=-20;whiteSpace=wrap;overflow=hidden;rounded=0;" vertex="1" parent="1">
          <mxGeometry x="40" y="20" width="190" height="50" as="geometry" />
        </mxCell>
        <mxCell id="I6zU9rjs1xP289XS1NUD-6" value="" style="edgeStyle=orthogonalEdgeStyle;rounded=0;orthogonalLoop=1;jettySize=auto;html=1;" edge="1" parent="1" source="I6zU9rjs1xP289XS1NUD-4" target="I6zU9rjs1xP289XS1NUD-5">
          <mxGeometry relative="1" as="geometry" />
        </mxCell>
        <mxCell id="I6zU9rjs1xP289XS1NUD-4" value="START" style="rounded=0;whiteSpace=wrap;html=1;" vertex="1" parent="1">
          <mxGeometry x="400" y="190" width="120" height="60" as="geometry" />
        </mxCell>
        <mxCell id="I6zU9rjs1xP289XS1NUD-8" value="" style="edgeStyle=orthogonalEdgeStyle;rounded=0;orthogonalLoop=1;jettySize=auto;html=1;" edge="1" parent="1" source="I6zU9rjs1xP289XS1NUD-5" target="I6zU9rjs1xP289XS1NUD-7">
          <mxGeometry relative="1" as="geometry" />
        </mxCell>
        <mxCell id="I6zU9rjs1xP289XS1NUD-5" value="INT n" style="rounded=0;whiteSpace=wrap;html=1;" vertex="1" parent="1">
          <mxGeometry x="400" y="330" width="120" height="60" as="geometry" />
        </mxCell>
        <mxCell id="I6zU9rjs1xP289XS1NUD-10" value="" style="edgeStyle=orthogonalEdgeStyle;rounded=0;orthogonalLoop=1;jettySize=auto;html=1;" edge="1" parent="1" source="I6zU9rjs1xP289XS1NUD-7" target="I6zU9rjs1xP289XS1NUD-9">
          <mxGeometry relative="1" as="geometry" />
        </mxCell>
        <mxCell id="I6zU9rjs1xP289XS1NUD-7" value="n = 3" style="rounded=0;whiteSpace=wrap;html=1;" vertex="1" parent="1">
          <mxGeometry x="400" y="440" width="120" height="60" as="geometry" />
        </mxCell>
        <mxCell id="I6zU9rjs1xP289XS1NUD-12" value="" style="edgeStyle=orthogonalEdgeStyle;rounded=0;orthogonalLoop=1;jettySize=auto;html=1;" edge="1" parent="1" source="I6zU9rjs1xP289XS1NUD-9" target="I6zU9rjs1xP289XS1NUD-11">
          <mxGeometry relative="1" as="geometry" />
        </mxCell>
        <mxCell id="I6zU9rjs1xP289XS1NUD-9" value="PRINT n" style="rounded=0;whiteSpace=wrap;html=1;" vertex="1" parent="1">
          <mxGeometry x="400" y="550" width="120" height="60" as="geometry" />
        </mxCell>
        <mxCell id="I6zU9rjs1xP289XS1NUD-11" value="SUCCESSO" style="rounded=0;whiteSpace=wrap;html=1;" vertex="1" parent="1">
          <mxGeometry x="400" y="670" width="120" height="60" as="geometry" />
        </mxCell>
        <mxCell id="I6zU9rjs1xP289XS1NUD-16" value="=" style="edgeStyle=orthogonalEdgeStyle;rounded=0;orthogonalLoop=1;jettySize=auto;html=1;fontSize=20;horizontal=1;" edge="1" parent="1" source="I6zU9rjs1xP289XS1NUD-14" target="I6zU9rjs1xP289XS1NUD-15">
          <mxGeometry relative="1" as="geometry" />
        </mxCell>
        <mxCell id="I6zU9rjs1xP289XS1NUD-14" value="3" style="rounded=0;whiteSpace=wrap;html=1;" vertex="1" parent="1">
          <mxGeometry x="240" y="190" width="120" height="60" as="geometry" />
        </mxCell>
        <mxCell id="I6zU9rjs1xP289XS1NUD-15" value="N" style="rounded=0;whiteSpace=wrap;html=1;" vertex="1" parent="1">
          <mxGeometry x="40" y="190" width="120" height="60" as="geometry" />
        </mxCell>
        <mxCell id="I6zU9rjs1xP289XS1NUD-18" value="DICHIARAZIONE" style="text;html=1;strokeColor=none;fillColor=none;align=center;verticalAlign=middle;whiteSpace=wrap;rounded=0;fontSize=20;fontStyle=1" vertex="1" parent="1">
          <mxGeometry x="105" y="290" width="40" height="20" as="geometry" />
        </mxCell>
        <mxCell id="I6zU9rjs1xP289XS1NUD-20" value="tipo_var nome_var" style="text;html=1;strokeColor=none;fillColor=none;align=center;verticalAlign=middle;whiteSpace=wrap;rounded=0;fontSize=15;" vertex="1" parent="1">
          <mxGeometry x="30" y="310" width="190" height="20" as="geometry" />
        </mxCell>
        <mxCell id="I6zU9rjs1xP289XS1NUD-24" value="TIPI" style="text;html=1;strokeColor=none;fillColor=none;align=center;verticalAlign=middle;whiteSpace=wrap;rounded=0;fontSize=20;fontStyle=1" vertex="1" parent="1">
          <mxGeometry x="160" y="400" width="40" height="20" as="geometry" />
        </mxCell>
        <mxCell id="I6zU9rjs1xP289XS1NUD-28" value="" style="edgeStyle=orthogonalEdgeStyle;rounded=0;orthogonalLoop=1;jettySize=auto;html=1;fontSize=15;" edge="1" parent="1" source="I6zU9rjs1xP289XS1NUD-26" target="I6zU9rjs1xP289XS1NUD-27">
          <mxGeometry relative="1" as="geometry" />
        </mxCell>
        <mxCell id="I6zU9rjs1xP289XS1NUD-26" value="int" style="text;html=1;strokeColor=none;fillColor=none;align=center;verticalAlign=middle;whiteSpace=wrap;rounded=0;fontSize=15;" vertex="1" parent="1">
          <mxGeometry x="40" y="430" width="40" height="20" as="geometry" />
        </mxCell>
        <mxCell id="I6zU9rjs1xP289XS1NUD-27" value="Numeri interi" style="text;html=1;strokeColor=none;fillColor=none;align=center;verticalAlign=middle;whiteSpace=wrap;rounded=0;fontSize=15;" vertex="1" parent="1">
          <mxGeometry x="210" y="430" width="100" height="20" as="geometry" />
        </mxCell>
        <mxCell id="I6zU9rjs1xP289XS1NUD-30" value="" style="edgeStyle=orthogonalEdgeStyle;rounded=0;orthogonalLoop=1;jettySize=auto;html=1;fontSize=15;" edge="1" parent="1" source="I6zU9rjs1xP289XS1NUD-31" target="I6zU9rjs1xP289XS1NUD-32">
          <mxGeometry relative="1" as="geometry" />
        </mxCell>
        <mxCell id="I6zU9rjs1xP289XS1NUD-31" value="float" style="text;html=1;strokeColor=none;fillColor=none;align=center;verticalAlign=middle;whiteSpace=wrap;rounded=0;fontSize=15;" vertex="1" parent="1">
          <mxGeometry x="45" y="500" width="40" height="20" as="geometry" />
        </mxCell>
        <mxCell id="I6zU9rjs1xP289XS1NUD-32" value="Numeri a virgola mobile" style="text;html=1;strokeColor=none;fillColor=none;align=center;verticalAlign=middle;whiteSpace=wrap;rounded=0;fontSize=15;" vertex="1" parent="1">
          <mxGeometry x="215" y="500" width="100" height="20" as="geometry" />
        </mxCell>
        <mxCell id="I6zU9rjs1xP289XS1NUD-33" value="" style="edgeStyle=orthogonalEdgeStyle;rounded=0;orthogonalLoop=1;jettySize=auto;html=1;fontSize=15;" edge="1" parent="1" source="I6zU9rjs1xP289XS1NUD-34" target="I6zU9rjs1xP289XS1NUD-35">
          <mxGeometry relative="1" as="geometry" />
        </mxCell>
        <mxCell id="I6zU9rjs1xP289XS1NUD-34" value="char" style="text;html=1;strokeColor=none;fillColor=none;align=center;verticalAlign=middle;whiteSpace=wrap;rounded=0;fontSize=15;" vertex="1" parent="1">
          <mxGeometry x="45" y="574.5" width="40" height="20" as="geometry" />
        </mxCell>
        <mxCell id="I6zU9rjs1xP289XS1NUD-35" value="Caratteri" style="text;html=1;strokeColor=none;fillColor=none;align=center;verticalAlign=middle;whiteSpace=wrap;rounded=0;fontSize=15;" vertex="1" parent="1">
          <mxGeometry x="215" y="574.5" width="100" height="20" as="geometry" />
        </mxCell>
        <mxCell id="I6zU9rjs1xP289XS1NUD-36" value="" style="edgeStyle=orthogonalEdgeStyle;rounded=0;orthogonalLoop=1;jettySize=auto;html=1;fontSize=15;" edge="1" parent="1" source="I6zU9rjs1xP289XS1NUD-37" target="I6zU9rjs1xP289XS1NUD-38">
          <mxGeometry relative="1" as="geometry" />
        </mxCell>
        <mxCell id="I6zU9rjs1xP289XS1NUD-37" value="float" style="text;html=1;strokeColor=none;fillColor=none;align=center;verticalAlign=middle;whiteSpace=wrap;rounded=0;fontSize=15;" vertex="1" parent="1">
          <mxGeometry x="45" y="650" width="40" height="20" as="geometry" />
        </mxCell>
        <mxCell id="I6zU9rjs1xP289XS1NUD-38" value="Numeri a doppia precisione" style="text;html=1;strokeColor=none;fillColor=none;align=center;verticalAlign=middle;whiteSpace=wrap;rounded=0;fontSize=15;" vertex="1" parent="1">
          <mxGeometry x="215" y="650" width="100" height="20" as="geometry" />
        </mxCell>
      </root>
    </mxGraphModel>
  </diagram>
</mxfile>
